<?xml version="1.0" encoding="UTF-8" standalone="no"?>
<!DOCTYPE svg PUBLIC "-//W3C//DTD SVG 1.1//EN" "http://www.w3.org/Graphics/SVG/1.1/DTD/svg11.dtd">
<svg width="100%" height="100%" viewBox="0 0 649 218" version="1.1" xmlns="http://www.w3.org/2000/svg" xmlns:xlink="http://www.w3.org/1999/xlink" xml:space="preserve" xmlns:serif="http://www.serif.com/" style="fill-rule:evenodd;clip-rule:evenodd;stroke-linejoin:round;stroke-miterlimit:2;">
    <g transform="matrix(0.32,0,0,0.32,0,0)">
        <g transform="matrix(1,0,0,1,-742.916,-750.497)">
            <rect id="Artboard1" x="742.916" y="750.497" width="2025.36" height="681.021" style="fill:none;"/>
            <g id="Artboard11" serif:id="Artboard1">
                <g transform="matrix(-2.70773,3.31601e-16,-3.27247e-16,-2.67217,1002.03,1105.72)">
                    <g transform="matrix(1,0,0,1,-87.737,-98.5592)">
                        <clipPath id="_clip1">
                            <rect x="0" y="0" width="175.474" height="197.118"/>
                        </clipPath>
                        <g clip-path="url(#_clip1)">
                            <g id="Artboard12" serif:id="Artboard1" transform="matrix(1,0,0,1,6.92394,13.2345)">
                                <rect x="-6.924" y="-13.235" width="175.474" height="197.118" style="fill:none;"/>
                                <g transform="matrix(1,0,0,1,0.0760569,0.765461)">
                                    <path d="M83.996,0.277C37.747,0.277 0.253,37.77 0.253,84.019C0.253,130.27 37.747,167.76 83.996,167.76C130.25,167.76 167.74,130.27 167.74,84.019C167.74,37.773 130.25,0.281 83.995,0.281L83.996,0.277ZM122.4,121.057C120.9,123.517 117.68,124.297 115.22,122.787C95.558,110.777 70.806,108.057 41.656,114.717C38.847,115.357 36.047,113.597 35.407,110.787C34.764,107.977 36.517,105.177 39.333,104.537C71.233,97.249 98.596,100.387 120.67,113.877C123.13,115.387 123.91,118.597 122.4,121.057ZM132.65,98.255C130.76,101.327 126.74,102.297 123.67,100.407C101.16,86.571 66.847,82.564 40.222,90.646C36.769,91.689 33.122,89.743 32.074,86.296C31.034,82.843 32.981,79.203 36.428,78.153C66.841,68.925 104.65,73.395 130.5,89.28C133.57,91.17 134.54,95.19 132.65,98.256L132.65,98.255ZM133.53,74.511C106.54,58.48 62.01,57.006 36.241,64.827C32.103,66.082 27.727,63.746 26.473,59.608C25.219,55.468 27.553,51.095 31.694,49.837C61.275,40.857 110.45,42.592 141.524,61.039C145.254,63.248 146.474,68.055 144.264,71.772C142.064,75.494 137.244,76.721 133.534,74.511L133.53,74.511Z" style="fill:rgb(215,195,30);fill-rule:nonzero;"/>
                                </g>
                            </g>
                        </g>
                    </g>
                </g>
                <g transform="matrix(12.6355,0,0,12.6355,-15372.7,-12928)">
                    <g transform="matrix(50,0,0,50,1431.44,1128.41)">
                    </g>
                    <text x="1313.79px" y="1128.41px" style="font-family:'BigNoodleTitling';font-size:50px;">ROCKIFY</text>
                </g>
            </g>
        </g>
    </g>
</svg>
